<svg xmlns="http://www.w3.org/2000/svg" viewBox="0 0 57.81 45.36">
  <defs>
    <style>
      .a {
        fill: #fff;
      }
    </style>
  </defs>
  <g>
    <path class="a" d="M9.2,44.72h2.59v.65H1.43v-.65H4V13.61H1.43V13H9.2V16A7.4,7.4,0,0,1,15,12.64c3.18,0,4.87,1.43,5.51,3.95a7.32,7.32,0,0,1,6.16-3.95c4.15,0,5.83,2.4,5.83,6.8V44.72h2.59v.65H24.76v-.65h2.59V16.53c0-1.69-.65-2.85-2-2.85-1.81,0-4.53,2.39-4.53,4.66V44.72h2.59v.65H13.09v-.65h2.59V16.53c0-1.69-.65-2.85-1.94-2.85-1.82,0-4.54,2.39-4.54,4.66Z" transform="translate(-1.43 0)"/>
    <path class="a" d="M51.46,16.53c0-2.08-1.17-3.24-2.6-3.24A4.19,4.19,0,0,0,45,17.5V44.72h2.59v.65H37.2v-.65h2.59V.65H37.2V0H45V15a4.8,4.8,0,0,1,4.53-2.4c3.57,0,7.13,2.4,7.13,6.8V44.72h2.59v.65H48.86v-.65h2.6Z" transform="translate(-1.43 0)"/>
  </g>
</svg>
