<svg xmlns="http://www.w3.org/2000/svg" xmlns:xlink="http://www.w3.org/1999/xlink" viewBox="0 0 612.07 845.04"><defs><style>.a{fill:none;}.b{fill:#fff;}.c{clip-path:url(#a);}.d{fill:url(#b);}.e{clip-path:url(#c);}.f{fill:url(#d);}.g{clip-path:url(#e);}.h{fill:url(#f);}.i{clip-path:url(#g);}.j{fill:url(#h);}.k{fill:url(#j);}.l{fill:url(#l);}</style><clipPath id="a" transform="translate(-90.04 -3.2)"><path class="a" d="M751.2,496.34c-.87-.7-8.94-6.7-26.39-3.84a43.72,43.72,0,0,0-28.58,17.7,50.35,50.35,0,0,0-9.61,30.08l-.29,70.83a113.16,113.16,0,0,1-113,101.81l-7.14-.07v.07H341.3a58.65,58.65,0,0,1-58.58-58.58v-55.9H451.29a107.88,107.88,0,0,0,107.6-102.06,126.53,126.53,0,0,0-5.66-252.93H365.44a58.58,58.58,0,1,1,0-117.16h37.12l.82,40.24A78.23,78.23,0,1,0,492,77.94l-40.24-.82V57.71a55,55,0,0,0-9.49-31.52c-7.07-10.23-17-16.71-28.56-18.73C396.14,4.4,388,10.8,387.16,11.55l-6,5.08,6.59,4.22c.14.09,13.95,9.15,13.95,29.88V77.12H365.44a107.75,107.75,0,0,0,0,215.49H553.23a77.36,77.36,0,0,1,5.64,154.52A107.88,107.88,0,0,0,451.29,345.39H424.46A107.88,107.88,0,0,0,316.71,453.14V496.5H509.59a58.68,58.68,0,0,1-58.3,52.78H282.72V514.84A107.88,107.88,0,0,0,175,407.09H91.37V490.7A107.86,107.86,0,0,0,199.12,598.44h34.43v55.9A107.88,107.88,0,0,0,341.3,762.09H573.35l2.64,0h1.83v0c82.58-2.27,151.45-67.42,157.75-150.17l1.12-47.79V533.69c0-19,13.33-27.53,13.86-27.86l7.12-4.28Zm-385-49a58.65,58.65,0,0,1,58.29-52.78h26.83a58.67,58.67,0,0,1,58.3,52.78ZM480.8,184.43a29.1,29.1,0,0,1-29.07-29.07V126.29H480.8a29.07,29.07,0,0,1,0,58.14ZM233.55,514.84v34.44H199.12a58.65,58.65,0,0,1-58.59-58.58V456.26H175A58.65,58.65,0,0,1,233.55,514.84Z"/></clipPath><linearGradient id="b" x1="1299.12" y1="433.39" x2="1244.5" y2="433.39" gradientTransform="translate(-1095.97 137.72)" gradientUnits="userSpaceOnUse"><stop offset="0" stop-opacity="0"/><stop offset="0.95" stop-opacity="0.89"/><stop offset="1"/></linearGradient><clipPath id="c" transform="translate(-90.04 -3.2)"><path class="a" d="M751.2,492.34c-.87-.69-8.94-6.7-26.39-3.83a43.72,43.72,0,0,0-28.58,17.7,50.31,50.31,0,0,0-9.61,30.08l-.29,70.82a113.16,113.16,0,0,1-113,101.82l-7.14-.07v.07H341.3a58.65,58.65,0,0,1-58.58-58.58v-55.9H451.29a107.88,107.88,0,0,0,107.6-102.07,126.53,126.53,0,0,0-5.66-252.93H365.44a58.58,58.58,0,1,1,0-117.16h37.12l.82,40.24A78.23,78.23,0,1,0,492,73.94l-40.24-.82V53.72a55,55,0,0,0-9.49-31.52c-7.07-10.23-17-16.71-28.56-18.74C396.14.41,388,6.81,387.16,7.55l-6,5.09,6.59,4.21c.14.09,13.95,9.16,13.95,29.89V73.12H365.44a107.75,107.75,0,0,0,0,215.5H553.23a77.36,77.36,0,0,1,5.64,154.52A107.88,107.88,0,0,0,451.29,341.4H424.46A107.87,107.87,0,0,0,316.71,449.14v43.37H509.59a58.67,58.67,0,0,1-58.3,52.77H282.72V510.85A107.87,107.87,0,0,0,175,403.1H91.37v83.6A107.87,107.87,0,0,0,199.12,594.45h34.43v55.9A107.87,107.87,0,0,0,341.3,758.09H573.35c.89,0,1.76,0,2.64,0h1.83v0c82.58-2.27,151.45-67.41,157.75-150.17l1.12-47.78V529.69c0-19,13.33-27.52,13.86-27.85l7.12-4.29Zm-385-49a58.66,58.66,0,0,1,58.29-52.78h26.83a58.68,58.68,0,0,1,58.3,52.78ZM480.8,180.43a29.1,29.1,0,0,1-29.07-29.07V122.29H480.8a29.07,29.07,0,0,1,0,58.14ZM233.55,510.85v34.43H199.12a58.65,58.65,0,0,1-58.59-58.58V452.26H175A58.65,58.65,0,0,1,233.55,510.85Z"/></clipPath><linearGradient id="d" x1="1240.53" y1="396.48" x2="1185.92" y2="396.48" gradientTransform="translate(-809.16 -242.69)" xlink:href="#b"/><clipPath id="e" transform="translate(-90.04 -3.2)"><path class="a" d="M751.2,493.68c-.87-.7-8.94-6.7-26.39-3.84a43.72,43.72,0,0,0-28.58,17.7,50.35,50.35,0,0,0-9.61,30.08l-.29,70.82a113.16,113.16,0,0,1-113,101.82l-7.14-.07v.07H341.3a58.65,58.65,0,0,1-58.58-58.58v-55.9H451.29a107.88,107.88,0,0,0,107.6-102.07,126.52,126.52,0,0,0-5.66-252.92H365.44a58.59,58.59,0,0,1,0-117.17h37.12l.82,40.24A78.23,78.23,0,1,0,492,75.27l-40.24-.81V55.05a55,55,0,0,0-9.49-31.52c-7.07-10.23-17-16.71-28.56-18.74-17.53-3-25.64,3.35-26.51,4.09l-6,5.09,6.59,4.21c.14.09,13.95,9.16,13.95,29.89V74.46H365.44a107.75,107.75,0,0,0,0,215.49H553.23a77.36,77.36,0,0,1,5.64,154.52A107.88,107.88,0,0,0,451.29,342.73H424.46A107.87,107.87,0,0,0,316.71,450.48v43.36H509.59a58.67,58.67,0,0,1-58.3,52.77H282.72V512.18A107.88,107.88,0,0,0,175,404.43H91.37V488A107.86,107.86,0,0,0,199.12,595.78h34.43v55.9A107.88,107.88,0,0,0,341.3,759.43H573.35c.89,0,1.76,0,2.64,0h1.83v0C660.4,757.09,729.27,692,735.57,609.2l1.12-47.79V531c0-19,13.33-27.52,13.86-27.85l7.12-4.29Zm-385-49a58.66,58.66,0,0,1,58.29-52.78h26.83a58.68,58.68,0,0,1,58.3,52.78ZM480.8,181.77a29.11,29.11,0,0,1-29.07-29.08V123.62H480.8a29.08,29.08,0,0,1,0,58.15ZM233.55,512.18v34.43H199.12A58.65,58.65,0,0,1,140.53,488V453.6H175A58.65,58.65,0,0,1,233.55,512.18Z"/></clipPath><linearGradient id="f" x1="888.32" y1="-531.52" x2="833.7" y2="-531.52" gradientTransform="translate(-471.1 575.05)" xlink:href="#b"/><clipPath id="g" transform="translate(-90.04 -3.2)"><path class="a" d="M752.53,495c-.87-.7-8.94-6.7-26.38-3.84a43.74,43.74,0,0,0-28.59,17.7A50.42,50.42,0,0,0,688,539l-.29,70.82a113.16,113.16,0,0,1-113,101.82l-7.15-.07v.07H342.63A58.65,58.65,0,0,1,284.05,653v-55.9H452.62A107.88,107.88,0,0,0,560.22,495a126.52,126.52,0,0,0-5.65-252.92H366.77a58.59,58.59,0,0,1,0-117.17h37.12l.82,40.24A78.23,78.23,0,1,0,493.3,76.61l-40.24-.82V56.38a55.13,55.13,0,0,0-9.5-31.52C436.49,14.63,426.62,8.15,415,6.12c-17.53-3.05-25.64,3.35-26.51,4.09l-5.95,5.09,6.6,4.21c.13.09,13.94,9.16,13.94,29.89V75.79H366.77a107.75,107.75,0,0,0,0,215.49h187.8A77.36,77.36,0,0,1,560.2,445.8,107.87,107.87,0,0,0,452.62,344.06H425.8A107.86,107.86,0,0,0,318.05,451.81v43.36H510.92A58.66,58.66,0,0,1,452.62,548H284.05V513.51A107.88,107.88,0,0,0,176.3,405.76H92.7v83.6A107.87,107.87,0,0,0,200.45,597.11h34.43V653A107.88,107.88,0,0,0,342.63,760.76H574.69c.88,0,1.75,0,2.63,0h1.83v0c82.58-2.27,151.45-67.41,157.75-150.16L738,562.74V532.35c0-19,13.33-27.52,13.86-27.85l7.12-4.28Zm-385-49a58.65,58.65,0,0,1,58.3-52.77h26.82A58.65,58.65,0,0,1,510.92,446ZM482.13,183.1A29.1,29.1,0,0,1,453.06,154V125h29.07a29.08,29.08,0,0,1,0,58.15ZM234.88,513.51V548H200.45a58.64,58.64,0,0,1-58.58-58.59V454.93H176.3A58.65,58.65,0,0,1,234.88,513.51Z"/></clipPath><linearGradient id="h" x1="1271.1" y1="-120.94" x2="1216.49" y2="-120.94" gradientTransform="translate(-743.17 536.22)" xlink:href="#b"/><linearGradient id="j" x1="1133.29" y1="858.45" x2="1078.67" y2="858.45" gradientTransform="translate(-605.35 -332.04)" xlink:href="#b"/><linearGradient id="l" x1="443.27" y1="401.45" x2="388.66" y2="401.45" gradientTransform="translate(-219.04 167.8)" xlink:href="#b"/></defs><rect class="b" x="437.24" y="796.85" width="51.39" height="51.39" rx="25.69" transform="translate(835.83 1641.89) rotate(180)"/><path class="b" d="M695.67,544.4c-.86-.7-8.88-6.73-26.2-3.85a43.33,43.33,0,0,0-28.4,17.78,50.62,50.62,0,0,0-9.48,27.58h-.07v71.9h-.12c.08,1.11.12,2.21.12,3.33a51.25,51.25,0,0,1-47.94,51.15h0c-3.09.25-6.21.41-9.37.41l-7.18-.08v.08H341.1c-1.75,0-3.49-.1-5.2-.25v-.11c-.67,0-1.33.07-2,.07a51.26,51.26,0,0,1-51.27-51.27c0-.22,0-.44,0-.66h0V597.7h169A108.38,108.38,0,0,0,559.68,495.16,127.1,127.1,0,0,0,554,241.09H365.36a58.85,58.85,0,0,1,0-117.7h37.28l.82,40.43a78.59,78.59,0,1,0,89-89L452,74V54.51a55.29,55.29,0,0,0-9.54-31.67c-7.1-10.27-17-16.78-28.69-18.82C396.19,1,388,7.39,387.17,8.13l-6,5.11,6.63,4.24c.14.09,14,9.2,14,30V74H365.36a108.24,108.24,0,0,0,0,216.48H554a77.71,77.71,0,0,1,5.66,155.22A108.38,108.38,0,0,0,451.59,343.49H424.64A108.36,108.36,0,0,0,316.41,451.73v43.56H510.15a58.92,58.92,0,0,1-58.56,53H282.26v-34.6A108.36,108.36,0,0,0,174,405.48H90v84A108.36,108.36,0,0,0,198.27,597.7h34.6v56.15a108.93,108.93,0,0,0,.59,11.33,100.52,100.52,0,0,0,97.81,96.44c3.24.29,6.52.46,9.83.46H574.21c.89,0,1.77,0,2.65,0h1.83v0c2.09-.06,4.16-.16,6.23-.3v-.2a100.5,100.5,0,0,0,95.87-100.38c0-.22,0-.44,0-.66h0V588.57h.47v-6.66c0-19.12,13.24-27.64,13.77-28l7.07-4.31ZM452,123.39h29.21A29.21,29.21,0,1,1,452,152.6ZM366.08,445.9a58.94,58.94,0,0,1,58.56-53h26.95a58.92,58.92,0,0,1,58.56,53ZM232.87,548.31h-34.6a58.91,58.91,0,0,1-58.84-58.85V454.87H174a58.91,58.91,0,0,1,58.85,58.84Z" transform="translate(-90.04 -3.2)"/><g class="c"><rect class="d" x="172.26" y="528.03" width="60.98" height="86.17" rx="11.45" transform="translate(315.46 1139.03) rotate(180)"/></g><g class="e"><rect class="f" x="400.48" y="110.71" width="60.98" height="86.17" transform="translate(494.73 -280.38) rotate(90)"/></g><g class="g"><rect class="h" x="386.34" y="0.45" width="60.98" height="86.17" transform="translate(283.26 457.16) rotate(-90)"/></g><g class="i"><rect class="j" x="497.05" y="372.2" width="60.98" height="86.17" rx="11.45" transform="translate(22.22 939.62) rotate(-90)"/></g><g class="i"><rect class="k" x="497.05" y="483.33" width="60.98" height="86.17" rx="11.45" transform="translate(963.92 -4.33) rotate(90)"/></g><g class="c"><rect class="l" x="193.36" y="526.16" width="60.98" height="86.17" rx="11.45"/></g></svg>