<?xml version="1.0" encoding="utf-8"?>
<!-- Generator: Adobe Illustrator 26.2.1, SVG Export Plug-In . SVG Version: 6.00 Build 0)  -->
<svg version="1.1" id="Layer_1" xmlns="http://www.w3.org/2000/svg" xmlns:xlink="http://www.w3.org/1999/xlink" x="0px" y="0px"
	 viewBox="0 0 501.2 487.7" style="enable-background:new 0 0 501.2 487.7;" xml:space="preserve">
<style type="text/css">
	.st0{fill:#FFFFFF;}
</style>
<g id="layer1" transform="translate(-66.970994,-261.91674)">
	<path id="path80319" class="st0" d="M440,451.4l41.5-71.9c2.3-4,0.9-9.2-3.1-11.5c-4-2.3-9.2-1-11.4,3.1L425,443.8
		c-32.1-14.7-68.2-22.8-107-22.8c-38.8,0-75,8.2-107,22.8L168.9,371c-2.3-4-7.5-5.4-11.5-3.1c-4,2.3-5.4,7.5-3.1,11.5l41.5,71.9
		C124.3,490.1,75.8,562.6,67.8,647.4h500.4C560.2,562.6,511.7,490.1,440,451.4z M203.1,577.1c-11.6,0-21-9.4-21-21
		c0-11.6,9.4-21,21-21c11.6,0,21,9.4,21,21C224.1,567.7,214.7,577.1,203.1,577.1z M432.8,577.1c-11.6,0-21-9.4-21-21
		c0-11.6,9.4-21,21-21c11.6,0,21,9.4,21,21C453.8,567.7,444.4,577.1,432.8,577.1z"/>
</g>
</svg>
