<?xml version="1.0" encoding="utf-8"?>
<!-- Generator: Adobe Illustrator 25.4.1, SVG Export Plug-In . SVG Version: 6.00 Build 0)  -->
<svg version="1.1" id="Capa_1" xmlns="http://www.w3.org/2000/svg" xmlns:xlink="http://www.w3.org/1999/xlink" x="0px" y="0px"
	 viewBox="0 0 501.2 487.7" style="enable-background:new 0 0 501.2 487.7;" xml:space="preserve">
<style type="text/css">
	.st0{fill:#FFFFFF;}
</style>
<g>
	<path class="st0" d="M202.7,135.2c-4.8,26.7-16.9,71.8-26.4,107.1h54c-6.4-25.3-21.4-80.5-27.1-107.1H202.7z"/>
	<path class="st0" d="M418.5,0H82.7C37.2,0,0,37.2,0,82.7V405c0,45.6,37.2,82.7,82.7,82.7h336c45.6,0,82.7-37.2,82.5-83V82.7
		C501.2,37.2,464.3,0,418.5,0z M299.8,349.9H262c-1.8,0-3-0.5-3.4-2.1l-18.9-68.6H167l-18,68.4c-0.5,1.8-1.1,2.3-3.4,2.3H112
		c-2.3,0-2.7-0.7-2.3-3.4l64.7-226.6c1.1-4.1,1.8-7.7,2.3-18.9c0-1.6,0.7-2.3,1.8-2.3h47.9c1.6,0,2.3,0.5,2.7,2.3l72.5,245.9
		C302.1,348.7,301.7,349.9,299.8,349.9z M376.9,347.1c0,1.8-0.5,2.7-2.7,2.7h-35.3c-2.3,0-3-1.1-3-3V167.3h-0.2
		c0-1.8,0.7-2.7,2.7-2.7h35.8c1.8,0,2.7,0.7,2.7,2.7V347.1z M355.7,138.8c-13.2,0-22.8-8.2-22.8-23.2c0-14.6,10.3-23.2,23.2-23.2
		c13.9,0,23.2,9.3,23.2,23.2C379.4,130.6,369.6,138.8,355.7,138.8z"/>
</g>
</svg>
