<?xml version="1.0" encoding="utf-8"?>
<!-- Generator: Adobe Illustrator 26.2.1, SVG Export Plug-In . SVG Version: 6.00 Build 0)  -->
<svg version="1.1" id="Layer_1" xmlns="http://www.w3.org/2000/svg" xmlns:xlink="http://www.w3.org/1999/xlink" x="0px" y="0px"
	 viewBox="0 0 501.2 487.7" style="enable-background:new 0 0 501.2 487.7;" xml:space="preserve">
<style type="text/css">
	.st0{fill:#FFFFFF;}
</style>
<path class="st0" d="M433.5,167.8c-2.8,2.2-51.8,29.8-51.8,91.3c0,71.1,62.4,96.2,64.3,96.9c-0.3,1.5-9.9,34.4-32.9,68
	c-20.5,29.5-41.9,59-74.5,59S297.6,464,260,464c-36.6,0-49.7,19.5-79.5,19.5s-50.6-27.3-74.5-60.8C78.4,383.3,56,322.1,56,264
	c0-93.1,60.6-142.5,120.1-142.5c31.7,0,58.1,20.8,77.9,20.8c18.9,0,48.4-22,84.5-22C352.2,120.3,401.3,121.5,433.5,167.8z
	 M321.4,80.9c14.9-17.7,25.4-42.2,25.4-66.7c0-3.4-0.3-6.9-0.9-9.6c-24.2,0.9-53.1,16.1-70.5,36.3c-13.7,15.5-26.4,40-26.4,64.9
	c0,3.7,0.6,7.5,0.9,8.7c1.5,0.3,4,0.6,6.5,0.6C278.3,115,305.6,100.5,321.4,80.9z"/>
</svg>
