<?xml version="1.0" encoding="utf-8"?>
<!-- Generator: Adobe Illustrator 25.4.1, SVG Export Plug-In . SVG Version: 6.00 Build 0)  -->
<svg version="1.1" id="Layer_1" xmlns="http://www.w3.org/2000/svg" xmlns:xlink="http://www.w3.org/1999/xlink" x="0px" y="0px"
	 viewBox="0 0 442.4 170" style="enable-background:new 0 0 442.4 170;" xml:space="preserve">
<style type="text/css">
	.st0{fill-rule:evenodd;clip-rule:evenodd;fill:#FFFFFF;}
	.st1{fill-rule:evenodd;clip-rule:evenodd;fill:url(#XMLID_00000137132973324220531940000006388105038033113272_);}
	.st2{clip-path:url(#SVGID_00000068636381654413579440000015038725889767913146_);}
	.st3{fill:none;}
	.st4{opacity:0.66;fill:#4B4B4B;enable-background:new    ;}
	.st5{clip-path:url(#SVGID_00000090262597449663532570000000904005340913870475_);}
	.st6{fill:url(#SVGID_00000142871255994667070860000008004978438147181984_);}
</style>
<path class="st0" d="M94.9,90.6c0-1.8-1-3.5-2.6-4.4L50,61.7c-0.7-0.4-1.5-0.6-2.3-0.7c-0.1,0-0.4,0-0.4,0c-0.8,0-1.6,0.2-2.3,0.7
	L2.6,86.1C1,87,0,88.7,0,90.6l0.1,65.6c0,0.9,0.5,1.8,1.3,2.2c0.8,0.5,1.8,0.5,2.5,0L29.1,144c1.6-1,2.6-2.6,2.6-4.4v-30.7
	c0-1.8,1-3.5,2.6-4.4l10.7-6.2c0.8-0.5,1.7-0.7,2.6-0.7c0.9,0,1.8,0.2,2.5,0.7l10.7,6.2c1.6,0.9,2.6,2.6,2.6,4.4v30.7
	c0,1.8,1,3.5,2.6,4.4L91,158.4c0.8,0.5,1.8,0.5,2.6,0c0.8-0.5,1.3-1.3,1.3-2.2L94.9,90.6z"/>
<path class="st0" d="M298.7,0.3c-0.8-0.4-1.8-0.4-2.5,0c-0.8,0.5-1.3,1.3-1.3,2.2v65c0,0.6-0.3,1.2-0.9,1.6c-0.5,0.3-1.2,0.3-1.8,0
	L281.6,63c-1.6-0.9-3.5-0.9-5.1,0l-42.4,24.4c-1.6,0.9-2.6,2.6-2.6,4.4v48.9c0,1.8,1,3.5,2.6,4.4l42.4,24.5c1.6,0.9,3.5,0.9,5.1,0
	l42.4-24.5c1.6-0.9,2.6-2.6,2.6-4.4V18.9c0-1.9-1-3.6-2.6-4.5L298.7,0.3z M294.8,124.7c0,0.5-0.2,0.9-0.6,1.1l-14.5,8.4
	c-0.4,0.2-0.9,0.2-1.3,0l-14.5-8.4c-0.4-0.2-0.6-0.6-0.6-1.1v-16.8c0-0.5,0.2-0.9,0.6-1.1l14.5-8.4c0.4-0.2,0.9-0.2,1.3,0l14.5,8.4
	c0.4,0.2,0.6,0.6,0.6,1.1V124.7z"/>
<g>
	<path class="st0" d="M439.8,107.5c1.6-0.9,2.5-2.6,2.5-4.4V91.2c0-1.8-1-3.5-2.5-4.4l-42.1-24.4c-1.6-0.9-3.5-0.9-5.1,0l-42.4,24.4
		c-1.6,0.9-2.6,2.6-2.6,4.4v48.9c0,1.8,1,3.5,2.6,4.5l42.1,24c1.5,0.9,3.5,0.9,5,0l25.5-14.1c0.8-0.5,1.3-1.3,1.3-2.2
		s-0.5-1.8-1.3-2.2l-42.6-24.5c-0.8-0.5-1.3-1.3-1.3-2.2V108c0-0.9,0.5-1.8,1.3-2.2l13.3-7.6c0.8-0.5,1.8-0.5,2.5,0l13.3,7.6
		c0.8,0.5,1.3,1.3,1.3,2.2V120c0,0.9,0.5,1.8,1.3,2.2s1.8,0.5,2.6,0L439.8,107.5z"/>
	<path class="st0" d="M394.5,105.2c0.3-0.2,0.7-0.2,1,0l8.1,4.7c0.3,0.2,0.5,0.5,0.5,0.9v9.4c0,0.4-0.2,0.7-0.5,0.9l-8.1,4.7
		c-0.3,0.2-0.7,0.2-1,0l-8.1-4.7c-0.3-0.2-0.5-0.5-0.5-0.9v-9.4c0-0.4,0.2-0.7,0.5-0.9L394.5,105.2z"/>
</g>
<g>
	
		<linearGradient id="XMLID_00000107546388073719239520000014904406531784094361_" gradientUnits="userSpaceOnUse" x1="115.89" y1="156.0675" x2="210.1" y2="156.0675" gradientTransform="matrix(1 0 0 -1 0 271.8552)">
		<stop  offset="5.301339e-03" style="stop-color:#FFFFFF"/>
		<stop  offset="0.1938" style="stop-color:#E8E8E8"/>
		<stop  offset="0.5423" style="stop-color:#C2C2C2"/>
		<stop  offset="0.8235" style="stop-color:#ABABAB"/>
		<stop  offset="1" style="stop-color:#A3A3A3"/>
	</linearGradient>
	
		<path id="XMLID_67_" style="fill-rule:evenodd;clip-rule:evenodd;fill:url(#XMLID_00000107546388073719239520000014904406531784094361_);" d="
		M160.5,62.9c1.6-0.9,3.5-0.9,5.1,0l42,24.2c1.6,0.9,2.5,2.6,2.5,4.4v48.5c0,1.8-1,3.5-2.5,4.4l-42,24.3c-1.6,0.9-3.5,0.9-5.1,0
		l-42-24.3c-1.6-0.9-2.5-2.6-2.5-4.4V91.5c0-1.8,1-3.5,2.5-4.4L160.5,62.9z"/>
	<g>
		<g>
			<defs>
				<path id="SVGID_1_" d="M165.5,62.9c-1.6-0.9-3.5-0.9-5.1,0l-42,24.2c-1.6,0.9-2.5,2.6-2.5,4.4v48.5c0,1.8,1,3.5,2.5,4.4l42,24.3
					c1.6,0.9,3.5,0.9,5.1,0l42-24.3c1.6-0.9,2.5-2.6,2.5-4.4V91.5c0-1.8-1-3.5-2.5-4.4L165.5,62.9z"/>
			</defs>
			<clipPath id="SVGID_00000062179520044324129720000002722719142227251613_">
				<use xlink:href="#SVGID_1_"  style="overflow:visible;"/>
			</clipPath>
			<g style="clip-path:url(#SVGID_00000062179520044324129720000002722719142227251613_);">
				<path class="st3" d="M160.4,62.9l-42.1,24.2c-1.6,0.9-2.6,2.6-2.6,4.4v48.5c0,1.2,0.4,2.3,1.2,3.2l47.3-80.9
					C162.9,62,161.6,62.2,160.4,62.9z"/>
				<path class="st3" d="M164.4,169.2c0.3-0.1,0.7-0.2,1-0.4l41.9-24.3c1.6-0.9,2.3-2.6,2.3-4.4V91.5c0-1.2-0.4-2.4-1.1-3.3
					L164.4,169.2z"/>
				<path class="st4" d="M207.3,87.1l-41.8-24.2c-0.4-0.2-0.9-0.4-1.3-0.5l-47.3,80.9c0.4,0.5,0.9,0.9,1.4,1.2l42.1,24.3
					c1.2,0.7,2.7,0.9,4,0.4l44.2-80.9C208.3,87.8,207.9,87.4,207.3,87.1z"/>
			</g>
		</g>
		<g>
			<defs>
				<path id="SVGID_00000016767683068793107180000014170591803746072222_" d="M165.5,62.9c-1.6-0.9-3.5-0.9-5.1,0l-42,24.2
					c-1.6,0.9-2.5,2.6-2.5,4.4v48.5c0,1.8,1,3.5,2.5,4.4l42,24.3c1.6,0.9,3.5,0.9,5.1,0l42-24.3c1.6-0.9,2.5-2.6,2.5-4.4V91.5
					c0-1.8-1-3.5-2.5-4.4L165.5,62.9z"/>
			</defs>
			<clipPath id="SVGID_00000120556756024613723220000010906439738499934342_">
				<use xlink:href="#SVGID_00000016767683068793107180000014170591803746072222_"  style="overflow:visible;"/>
			</clipPath>
			<g style="clip-path:url(#SVGID_00000120556756024613723220000010906439738499934342_);">
				<path class="st3" d="M118.8,86.8l-0.5,0.3c-1.6,0.9-2.6,2.6-2.6,4.4v48.6c0,1.8,1,3.5,2.6,4.4l42.1,24.3
					c1.1,0.6,2.4,0.8,3.7,0.5L118.8,86.8z"/>
				<path class="st3" d="M209.7,91.5c0-1.8-0.8-3.5-2.4-4.4l-41.8-24.2c-0.4-0.2-0.8-0.4-1.2-0.5l45.4,77.5V91.5z"/>
				
					<linearGradient id="SVGID_00000175317694438779247110000018120268507961605007_" gradientUnits="userSpaceOnUse" x1="115.245" y1="156.1291" x2="212.4228" y2="156.1291" gradientTransform="matrix(1 0 0 -1 0 271.8552)">
					<stop  offset="0" style="stop-color:#A3A3A3"/>
					<stop  offset="0.1765" style="stop-color:#ABABAB"/>
					<stop  offset="0.4577" style="stop-color:#C2C2C2"/>
					<stop  offset="0.8062" style="stop-color:#E8E8E8"/>
					<stop  offset="0.9947" style="stop-color:#FFFFFF"/>
				</linearGradient>
				<path style="fill:url(#SVGID_00000175317694438779247110000018120268507961605007_);" d="M165.4,168.7l41.9-24.3
					c1.6-0.9,2.3-2.6,2.3-4.4v-0.2l-45.4-77.5c-1.3-0.4-2.7-0.2-3.9,0.5l-41.6,24l45.2,82.4C164.5,169.1,165,169,165.4,168.7z"/>
			</g>
		</g>
	</g>
</g>
</svg>
