<?xml version="1.0" encoding="utf-8"?>
<!-- Generator: Adobe Illustrator 25.4.1, SVG Export Plug-In . SVG Version: 6.00 Build 0)  -->
<svg version="1.1" id="Layer_1" xmlns="http://www.w3.org/2000/svg" xmlns:xlink="http://www.w3.org/1999/xlink" x="0px" y="0px"
	 viewBox="0 0 501.2 487.7" style="enable-background:new 0 0 501.2 487.7;" xml:space="preserve">
<style type="text/css">
	.st0{fill:#FFFFFF;}
</style>
<g>
	<path class="st0" d="M309.7,262.1c0,41.9,20.5,58.8,46.3,58.8c5.5,0,11.4-0.7,15.7-2.5V205.6c-3.2-1.4-7.7-2.3-13.2-2.3
		C329.8,203.3,309.7,225.4,309.7,262.1z"/>
	<path class="st0" d="M418.5,0H82.7C37.2,0,0,37.2,0,82.7V405c0,45.6,37.2,82.7,82.7,82.7h336h0c45.6,0,82.7-37.2,82.5-83V82.7
		C501.2,37.2,464.3,0,418.5,0z M256,353h-39.7c-2.5,0-3.6-0.7-4.8-3c-14.6-30.1-29.4-60.2-44.7-92.5h-0.5
		c-13.7,30.5-28.7,62.7-43.3,92.8c-1.1,1.8-2.3,2.5-4.1,2.5H81.4c-2.3,0-2.5-1.8-1.4-3.2l62.5-119L82.1,110.3
		c-1.4-1.8,0-3.2,1.4-3.2h39.2c2.3,0,3.2,0.5,4.1,2.5c14.4,30.1,28.9,61.1,42.6,91.4h0.5c13.2-30.1,27.8-61.3,41.9-91.2
		c1.1-1.8,1.8-3,4.1-3h36.7c1.8,0,2.5,1.4,1.4,3.2l-60.4,116.7l63.8,122.6C258.5,351.2,257.8,353,256,353z M411.6,343
		c-19.1,9.1-39.2,13.2-58.3,13.2c-49.5,0.2-84.8-30.3-84.8-92.3v0c0-53.1,35.3-94.6,91.4-94.6c4.8,0,7.3,0,11.9,0.5v-60.4
		c0-1.4,1.1-2.3,2.3-2.3h36c1.8,0,2.3,0.7,2.3,1.8v209.2c0,6.2,0,13.9,1.1,22.3C413.4,341.9,413,342.3,411.6,343z"/>
</g>
</svg>
