<?xml version="1.0" encoding="utf-8"?>
<!-- Generator: Adobe Illustrator 25.4.1, SVG Export Plug-In . SVG Version: 6.00 Build 0)  -->
<svg version="1.1" id="Layer_1" xmlns="http://www.w3.org/2000/svg" xmlns:xlink="http://www.w3.org/1999/xlink" x="0px" y="0px"
	 viewBox="0 0 128 176" style="enable-background:new 0 0 128 176;" xml:space="preserve">
<style type="text/css">
	.st0{fill:#FFFFFF;}
	.st1{display:none;}
	.st2{display:inline;fill:#00FFFF;fill-opacity:0.2;}
</style>
<g id="Layer_3">
</g>
<g id="Layer_1_00000148625117565930939910000004544843832567487402_">
	<g>
		<path id="icon_1_" class="st0" d="M4.3,114.9L21.7,3.4c0.6-3.8,5.7-4.7,7.5-1.3l18.7,35L4.3,114.9z M128,142L111.4,39.3
			c-0.5-3.2-4.5-4.5-6.8-2.2L0,142l57.9,32.5c3.6,2,8.1,2,11.7,0L128,142z M81,52.4L67.6,26.9c-1.5-2.9-5.6-2.9-7.1,0l-58.9,105
			L81,52.4z"/>
	</g>
</g>
<g id="guides" class="st1">
	<rect id="XMLID_80_" x="-65.9" y="174" class="st2" width="753.2" height="64"/>
	<rect id="XMLID_78_" x="-65.9" y="-98" class="st2" width="753.2" height="64"/>
	<rect x="623.2" y="-98" class="st2" width="64" height="336"/>
	<rect x="131" y="-98" class="st2" width="48" height="336"/>
	<rect x="-65.8" y="-98" class="st2" width="64" height="336"/>
</g>
</svg>
